<svg id="Layer_1" enable-background="new 0 0 512 512" viewBox="0 0 512 512" xmlns="http://www.w3.org/2000/svg"><g><path d="m496 256c0 87.599-24 151.44-72 190.8-39.601 32.88-95.52 49.2-168 49.2s-128.399-16.32-168-49.2c-48-39.36-72-103.201-72-190.8 0-160.081 79.92-240 240-240s240 79.919 240 240z" fill="#6eb3ff"/><path d="m424 253.12v193.68c-39.601 32.88-95.52 49.2-168 49.2s-128.399-16.32-168-49.2v-264.24c0-38.88 31.68-70.56 70.56-70.56h124.32c7.2 0 14.399.479 21.12 1.68 67.92 10.08 120 68.64 120 139.44z" fill="#fff"/><path d="m424 253.12v2.88h-24c-53.041 0-96-42.961-96-96v-46.32c67.92 10.08 120 68.64 120 139.44z" fill="#6eb3ff" opacity=".2"/><path d="m354.022 430.913h-196.044c-11.022 0-19.957-8.935-19.957-19.957v-16.435c0-11.022 8.935-19.957 19.957-19.957h196.043c11.022 0 19.957 8.935 19.957 19.957v16.435c0 11.022-8.935 19.957-19.956 19.957z" fill="#0b8bff"/><path d="m211.398 295.897c3.516 3.516 9.234 3.516 12.75 0l22.852-22.868v73.165c0 4.969 4.031 9 9 9s9-4.031 9-9v-73.165l22.852 22.868c3.516 3.516 9.234 3.516 12.75 0 3.492-3.516 3.492-9.234 0-12.75l-38.227-38.227c-1.758-1.758-4.078-2.625-6.375-2.625s-4.617.867-6.375 2.625l-38.227 38.227c-3.492 3.515-3.492 9.234 0 12.75z" fill="#0b8bff"/><path d="m354.529 402.739h-35.217c-4.7 0-8.511-3.81-8.511-8.511 0-4.7 3.81-8.511 8.511-8.511h35.217c4.7 0 8.511 3.81 8.511 8.511-.001 4.701-3.811 8.511-8.511 8.511z" fill="#6eb3ff" opacity=".76"/></g></svg>