<svg width="12033" height="3008" viewBox="0 0 12033 3008" fill="none" xmlns="http://www.w3.org/2000/svg">
<path fill-rule="evenodd" clip-rule="evenodd" d="M388.832 492.449C372.941 509.914 373.994 536.709 390.688 553.407L2454.02 2616.73C2470.71 2633.43 2497.51 2634.48 2514.97 2618.59C2817.52 2343.29 3007.42 1946.37 3007.42 1505.09C3007.42 673.853 2333.57 0 1502.33 0C1061.05 0 664.131 189.906 388.832 492.449ZM130.948 884.034C123.324 900.846 127.168 920.557 140.22 933.609L2073.81 2867.2C2086.87 2880.25 2106.58 2884.1 2123.39 2876.48C2168.06 2856.21 2211.56 2833.83 2253.77 2809.47C2278.86 2794.98 2282.7 2760.75 2262.21 2740.27L267.154 745.209C246.671 724.724 212.44 728.569 197.957 753.655C173.588 795.864 151.209 839.365 130.948 884.034ZM13.6432 1437.71C4.58978 1428.65 -0.227268 1416.17 0.625036 1403.4C4.61674 1343.57 12.1048 1284.69 22.8867 1226.98C29.3516 1192.37 71.6382 1180.36 96.5318 1205.26L1802.17 2910.89C1827.06 2935.78 1815.05 2978.07 1780.44 2984.54C1722.73 2995.32 1663.86 3002.81 1604.02 3006.8C1591.25 3007.65 1578.77 3002.83 1569.72 2993.78L13.6432 1437.71ZM118.314 1857.71C87.238 1826.63 37.0892 1853.41 48.4699 1895.86C187.129 2413.03 594.393 2820.3 1111.56 2958.95C1154.01 2970.33 1180.79 2920.18 1149.71 2889.11L118.314 1857.71ZM6064.2 828.254C6172.09 828.254 6259.53 740.48 6259.53 632.207C6259.53 523.934 6172.09 436.161 6064.2 436.161C5956.33 436.161 5868.89 523.934 5868.89 632.207C5868.89 740.48 5956.33 828.254 6064.2 828.254ZM4391.11 2537.99V436.278H4738.24V2230.49H5674.18V2537.99H4391.11ZM6861.77 1680.38V2537.99H6525.89V1048.45H6857.56V1303.76L6861.77 1300.94C6895.49 1221.01 6949.84 1154.25 7024.8 1100.64C7099.73 1046.1 7195.29 1018.83 7311.49 1018.83C7414.55 1018.83 7508.22 1041.87 7592.56 1087.95C7676.88 1133.09 7744.32 1199.38 7794.91 1286.84C7845.5 1374.29 7870.8 1481.49 7870.8 1608.44V2537.99H7534.93V1654.99C7534.93 1542.15 7504.94 1456.57 7444.99 1398.27C7385.97 1339.03 7306.8 1309.41 7207.48 1309.41C7143.77 1309.41 7085.68 1322.57 7033.22 1348.9C6980.76 1375.23 6939.07 1415.67 6908.15 1470.21C6877.23 1524.75 6861.77 1594.8 6861.77 1680.38ZM9903.01 2512.6C9979.83 2545.51 10067.9 2561.97 10167.2 2561.97C10248.7 2561.97 10318.5 2551.63 10376.6 2530.94C10434.7 2509.31 10482.5 2480.63 10520 2444.89C10558.4 2409.16 10588.8 2370.14 10611.3 2327.82H10616.9V2537.99H10938.8V1512.52C10938.8 1440.11 10924.7 1373.82 10896.6 1313.64C10868.5 1253.45 10827.7 1201.26 10774.3 1157.07C10721.8 1112.87 10658.1 1079.02 10583.2 1055.51C10508.3 1031.06 10423.9 1018.83 10330.2 1018.83C10201.9 1018.83 10090.9 1040.93 9997.16 1085.13C9904.39 1128.39 9831.81 1186.69 9779.32 1260.04C9726.86 1333.38 9698.28 1416.14 9693.59 1508.29H10018.2C10022 1465.04 10037 1426.48 10063.2 1392.63C10089.4 1358.78 10125.1 1332.44 10170 1313.64C10215 1293.89 10267 1284.01 10326 1284.01C10385 1284.01 10435.2 1293.89 10476.4 1313.64C10518.5 1333.38 10550.9 1360.19 10573.3 1394.04C10595.8 1427.89 10607.1 1467.39 10607.1 1512.52V1523.81C10607.1 1557.66 10595.4 1582.58 10572 1598.57C10549.5 1614.55 10511 1626.31 10456.7 1633.83C10403.3 1641.35 10330.2 1650.29 10237.5 1660.63C10161.6 1669.09 10088.5 1681.79 10018.2 1698.72C9947.98 1715.64 9885.2 1740.56 9829.91 1773.47C9775.59 1806.39 9732.49 1850.11 9700.63 1904.66C9668.78 1959.2 9652.86 2029.25 9652.86 2114.83C9652.86 2213.57 9675.33 2296.32 9720.3 2363.08C9765.27 2428.91 9826.18 2478.75 9903.01 2512.6ZM10446.9 2262.93C10392.5 2292.08 10325.5 2306.66 10245.9 2306.66C10165.3 2306.66 10101.1 2289.73 10053.4 2255.88C10005.6 2221.09 9981.7 2173.6 9981.7 2113.42C9981.7 2066.4 9994.81 2028.31 10021 1999.16C10048.2 1970.01 10083.8 1946.97 10127.9 1930.05C10171.9 1913.12 10219.7 1901.37 10271.2 1894.78C10308.7 1889.14 10345.2 1883.5 10380.8 1877.85C10416.4 1871.27 10449.7 1865.16 10480.6 1859.52C10511.5 1852.94 10537.8 1846.35 10559.3 1839.77C10581.8 1833.19 10598.2 1826.13 10608.5 1818.61V1985.06C10608.5 2043.36 10594.9 2096.96 10567.7 2145.86C10541.5 2193.82 10501.2 2232.84 10446.9 2262.93ZM11231.8 2537.99V1048.45H11555V1293.89H11559.2C11586.4 1209.26 11629 1144.84 11687.1 1100.64C11746.1 1055.51 11823.4 1032.94 11919 1032.94C11942.4 1032.94 11963.5 1033.88 11982.2 1035.76C12001.9 1036.7 12018.3 1037.64 12031.4 1038.58V1341.85C12019.3 1339.97 11997.7 1337.62 11966.8 1334.8C11935.9 1331.97 11903.1 1330.56 11868.4 1330.56C11813.1 1330.56 11762.6 1343.26 11716.6 1368.65C11670.7 1394.04 11634.2 1433.06 11607 1485.72C11580.8 1537.44 11567.7 1602.8 11567.7 1681.79V2537.99H11231.8ZM5895.57 2537.99V1048.45H6231.44V2537.99H5895.57ZM8429.45 2471.69C8537.2 2538.46 8665.1 2571.84 8813.12 2571.84C8927.42 2571.84 9031.41 2551.15 9125.11 2509.78C9219.74 2467.46 9298.43 2409.63 9361.21 2336.28C9423.98 2261.99 9464.74 2176.42 9483.48 2079.56H9167.28C9153.2 2123.76 9130.25 2162.78 9098.4 2196.64C9067.51 2229.55 9028.61 2255.41 8981.78 2274.22C8934.91 2293.03 8880.59 2302.43 8818.74 2302.43C8735.36 2302.43 8663.68 2283.62 8603.73 2246.01C8544.72 2208.39 8499.75 2156.2 8468.82 2089.44C8440.76 2027.98 8425.42 1958.4 8422.83 1880.68H9503.15V1790.4C9503.15 1675.68 9486.28 1571.3 9452.56 1477.26C9418.84 1382.28 9371.04 1300.47 9309.2 1231.83C9247.38 1162.24 9172.91 1108.64 9085.77 1071.02C8999.56 1033.41 8903.54 1014.6 8797.66 1014.6C8659.95 1014.6 8538.16 1047.99 8432.28 1114.75C8326.39 1181.52 8243.49 1273.67 8183.51 1391.22C8123.56 1508.76 8093.57 1643.23 8093.57 1794.63C8093.57 1945.09 8122.63 2079.09 8180.72 2196.64C8238.8 2313.24 8321.73 2404.93 8429.45 2471.69ZM9136.36 1485.72C9105.44 1421.78 9061.4 1372.41 9004.25 1337.62C8947.1 1302.82 8879.66 1285.43 8801.87 1285.43C8725.04 1285.43 8658.06 1302.82 8600.9 1337.62C8544.71 1372.41 8500.68 1421.78 8468.82 1485.72C8446.08 1532.03 8431.7 1584.69 8425.69 1643.71H9179.46C9173.45 1584.69 9159.07 1532.03 9136.36 1485.72Z" fill="white"/>
</svg>
