<svg width="5089" height="1374" viewBox="0 0 5089 1374" fill="none" xmlns="http://www.w3.org/2000/svg">
<g clip-path="url(#clip0_4039_15559)">
<path d="M4816.36 654.133L5088.28 1373.83C5008.58 1362.91 4927.31 1347.29 4846.05 1334.81L4692.9 936.705L4535.07 1302.02C4458.49 1289.53 4381.92 1284.85 4303.78 1275.48L4580.39 646.327L4330.35 0H4563.2L4703.84 360.632L4853.87 0H5088.28L4816.36 654.133ZM4147.51 0H3936.54V1247.38C4005.3 1252.06 4077.18 1255.19 4147.51 1262.99V0ZM3755.26 1233.33C3563.04 1220.84 3370.83 1208.35 3175.48 1205.23V0H3389.58V1002.27C3513.04 1005.4 3636.49 1014.76 3755.26 1021.01V1233.33ZM2945.76 488.648V702.529H2651.97V1191.18H2439.43V0H3041.09V213.881H2651.97V487.087H2945.76V488.648ZM2078.44 213.881V1202.11C2006.56 1202.11 1933.11 1202.11 1862.78 1205.23V213.881H1640.88V0H2301.91V213.881H2078.44ZM1409.59 713.457C1315.83 713.457 1203.31 713.457 1123.61 718.141V1036.62C1250.19 1027.25 1375.21 1017.89 1503.35 1013.2V1219.28L909.514 1266.11V0H1503.35V213.881H1123.61V502.699C1206.43 502.699 1334.58 498.015 1409.59 498.015V713.457ZM218.783 593.247V1342.61C142.209 1351.98 73.4487 1362.91 0 1373.83V0H204.719L484.449 780.588V0H700.107V1284.85C623.533 1297.34 546.958 1302.02 465.696 1312.95L218.783 593.247Z" fill="#E50914"/>
</g>
<defs>
<clipPath id="clip0_4039_15559">
<rect width="5088.28" height="1373.83" fill="white"/>
</clipPath>
</defs>
</svg>
