<svg width="1900" height="659" viewBox="0 0 1900 659" fill="none" xmlns="http://www.w3.org/2000/svg">
<g clip-path="url(#clip0_4039_15550)">
<path d="M40.02 28.4069L404.412 1.05167C448.645 -3.15683 460.23 -0.00045709 488.665 19.9899L605.566 102.056C624.522 115.733 630.841 119.942 630.841 135.724V584.981C630.841 613.389 620.31 630.223 584.502 632.327L161.133 657.578C133.751 658.63 121.113 655.474 107.422 637.588L22.1163 527.114C6.31894 506.072 0 491.342 0 473.456V73.6483C0 50.5016 10.5316 30.5112 40.02 28.4069Z" fill="white"/>
<path fill-rule="evenodd" clip-rule="evenodd" d="M404.412 1.05164L40.02 28.4069C10.5316 30.5112 0 50.5015 0 73.6483V473.456C0 491.342 6.31894 507.124 22.1163 527.114L107.422 638.64C121.113 656.526 134.804 660.734 161.133 658.63L584.502 633.379C620.31 631.275 630.841 614.441 630.841 586.033V135.724C630.841 120.994 625.576 116.785 607.672 104.16C606.619 103.108 605.566 103.108 604.512 102.056L488.665 21.042C461.283 -0.000487433 449.698 -2.10474 404.412 1.05164ZM170.612 128.359C135.857 130.463 128.485 131.515 108.475 114.681L58.9768 75.7525C53.711 70.4919 55.8173 64.1792 69.5084 63.127L420.21 37.876C449.698 35.7718 464.442 45.2409 476.027 54.71L536.057 97.8472C539.217 98.8993 545.536 106.264 537.11 106.264L174.824 128.359H170.612ZM130.592 581.825V199.903C130.592 183.069 135.857 175.704 150.602 174.652L566.599 150.453C580.29 149.401 586.609 157.818 586.609 174.652V553.418C586.609 570.252 583.449 583.929 561.333 584.981L163.239 608.128C141.123 610.232 130.592 601.815 130.592 581.825ZM523.419 220.946C525.526 232.519 523.419 244.093 511.834 245.145L492.878 249.353V531.323C476.027 540.792 461.283 545.001 448.645 545.001C428.635 545.001 423.369 538.688 407.572 519.75L281.193 321.95V512.385L321.213 521.854C321.213 521.854 321.213 545.001 289.618 545.001L201.153 550.261C199.047 545.001 201.153 532.375 209.578 530.271L232.748 523.958V271.448L201.153 268.292C199.047 256.718 205.366 239.884 223.269 238.832L318.054 232.519L448.645 432.423V255.666L414.944 251.458C412.838 237.78 422.316 227.259 434.954 226.207L523.419 220.946Z" fill="black"/>
<path d="M910.982 467.143V293.543H914.141L1039.47 467.143H1079.49V211.477H1035.25V385.078H1032.09L906.769 211.477H866.749V467.143H910.982ZM1202.71 470.3C1260.63 470.3 1295.38 432.423 1295.38 369.296C1295.38 307.22 1259.58 268.292 1202.71 268.292C1144.78 268.292 1110.03 306.168 1110.03 369.296C1108.98 432.423 1144.78 470.3 1202.71 470.3ZM1202.71 433.475C1172.16 433.475 1154.26 410.329 1154.26 369.296C1154.26 329.315 1172.16 305.116 1202.71 305.116C1233.25 305.116 1251.15 328.263 1251.15 369.296C1250.1 410.329 1233.25 433.475 1202.71 433.475ZM1335.4 226.207V274.604H1304.86V309.325H1335.4V414.537C1335.4 452.414 1353.31 467.143 1397.54 467.143C1405.97 467.143 1414.39 466.091 1420.71 465.039V431.371C1415.44 432.423 1412.28 432.423 1405.97 432.423C1388.06 432.423 1379.64 424.006 1379.64 405.068V310.377H1420.71V275.657H1379.64V227.259H1335.4V226.207ZM1447.04 467.143H1491.27V273.552H1447.04V467.143ZM1469.16 240.936C1483.9 240.936 1495.48 229.363 1495.48 214.633C1495.48 199.903 1483.9 188.33 1469.16 188.33C1454.41 188.33 1442.83 199.903 1442.83 214.633C1442.83 229.363 1454.41 240.936 1469.16 240.936ZM1611.33 470.3C1669.25 470.3 1704.01 432.423 1704.01 369.296C1704.01 307.22 1668.2 268.292 1611.33 268.292C1553.41 268.292 1518.65 306.168 1518.65 369.296C1517.6 432.423 1553.41 470.3 1611.33 470.3ZM1611.33 433.475C1580.79 433.475 1562.89 410.329 1562.89 369.296C1562.89 329.315 1580.79 305.116 1611.33 305.116C1641.87 305.116 1659.78 328.263 1659.78 369.296C1658.72 410.329 1641.87 433.475 1611.33 433.475ZM1730.34 467.143H1774.57V353.514C1774.57 325.106 1791.42 307.22 1816.7 307.22C1843.03 307.22 1855.66 321.95 1855.66 351.41V466.091H1899.9V340.888C1899.9 294.595 1876.73 268.292 1833.55 268.292C1805.11 268.292 1785.1 281.969 1775.62 303.012H1772.46V273.552H1730.34V467.143Z" fill="black"/>
</g>
<defs>
<clipPath id="clip0_4039_15550">
<rect width="1899.9" height="658.631" fill="white"/>
</clipPath>
</defs>
</svg>
