<svg width="1900" height="1330" viewBox="0 0 1900 1330" fill="none" xmlns="http://www.w3.org/2000/svg">
<mask id="mask0_4039_15542" style="mask-type:luminance" maskUnits="userSpaceOnUse" x="0" y="3" width="1895" height="1326">
<path d="M0.417969 3.47949H1894.08V1328.81H0.417969V3.47949Z" fill="white"/>
</mask>
<g mask="url(#mask0_4039_15542)">
<path fill-rule="evenodd" clip-rule="evenodd" d="M788.199 148.073C849.281 84.4373 934.331 44.9501 1028.39 44.9501C1153.41 44.9501 1262.51 114.669 1320.58 218.182C1372.54 194.962 1428.83 182.995 1485.75 183.065C1711.26 183.065 1894.08 367.48 1894.08 594.98C1894.08 822.481 1711.26 1006.9 1485.75 1006.9C1458.21 1006.9 1431.32 1004.13 1405.3 998.886C1354.16 1090.12 1256.66 1151.77 1144.78 1151.77C1099.53 1151.83 1054.86 1141.55 1014.19 1121.71C962.342 1243.7 841.501 1329.23 700.707 1329.23C554.053 1329.23 429.063 1236.45 381.12 1106.32C359.753 1110.83 337.973 1113.1 316.134 1113.09C141.532 1113.09 0 970.074 0 793.662C0 675.423 63.5804 572.196 158.081 516.973C138.059 470.869 127.756 421.133 127.815 370.869C127.815 167.97 292.521 3.47949 495.692 3.47949C614.975 3.47949 720.986 60.1841 788.199 148.073Z" fill="#00A1E0"/>
</g>
<path fill-rule="evenodd" clip-rule="evenodd" d="M274.337 690.984C273.147 694.088 274.761 694.735 275.144 695.285C278.7 697.86 282.312 699.725 285.959 701.82C305.271 712.043 323.525 715.043 342.594 715.043C381.448 715.043 405.583 694.387 405.583 661.122V660.468C405.583 629.708 378.337 618.531 352.803 610.465L349.47 609.386C330.213 603.137 313.594 597.729 313.594 585.043V584.395C313.594 573.532 323.309 565.549 338.362 565.549C355.1 565.549 374.934 571.11 387.725 578.174C387.725 578.174 391.497 580.609 392.868 576.97C393.613 575 400.078 557.588 400.767 555.702C401.504 553.663 400.21 552.125 398.881 551.332C384.273 542.431 364.098 536.376 343.213 536.376L339.337 536.39C303.775 536.39 278.944 557.894 278.944 588.668V589.329C278.944 621.76 306.336 632.303 331.995 639.632L336.115 640.912C354.8 646.647 370.939 651.602 370.939 664.748V665.402C370.939 677.442 360.451 686.384 343.561 686.384C337.012 686.384 316.107 686.273 293.517 671.985C290.782 670.392 289.223 669.243 287.114 667.956C286.001 667.281 283.217 666.063 282.006 669.71L274.337 690.984ZM843.122 690.984C841.932 694.088 843.547 694.735 843.943 695.285C847.486 697.86 851.105 699.725 854.744 701.82C874.063 712.043 892.318 715.043 911.379 715.043C950.233 715.043 974.375 694.387 974.375 661.122V660.468C974.375 629.708 947.136 618.531 921.596 610.465L918.262 609.386C899.006 603.137 882.38 597.729 882.38 585.043V584.395C882.38 573.532 892.102 565.549 907.162 565.549C923.892 565.549 943.719 571.11 956.511 578.174C956.511 578.174 960.283 580.609 961.66 576.97C962.398 575 968.87 557.588 969.552 555.702C970.297 553.663 968.996 552.125 967.673 551.332C953.059 542.431 932.891 536.376 912.006 536.376L908.122 536.39C872.567 536.39 847.736 557.894 847.736 588.668V589.329C847.736 621.76 875.121 632.303 900.787 639.632L904.9 640.912C923.593 646.647 939.732 651.602 939.732 664.748V665.402C939.732 677.442 929.237 686.384 912.361 686.384C905.798 686.384 884.892 686.273 862.309 671.985C859.574 670.392 857.974 669.292 855.9 667.956C855.197 667.511 851.919 666.23 850.798 669.71L843.122 690.984ZM1231.42 625.817C1231.42 644.607 1227.91 659.445 1221.02 669.905C1214.17 680.274 1203.84 685.319 1189.43 685.319C1175.01 685.319 1164.73 680.281 1158 669.918C1151.2 659.452 1147.75 644.607 1147.75 625.817C1147.75 607.041 1151.2 592.252 1158 581.897C1164.73 571.632 1175.01 566.649 1189.43 566.649C1203.84 566.649 1214.17 571.639 1221.02 581.904C1227.92 592.252 1231.42 607.041 1231.42 625.817ZM1263.86 590.972C1260.67 580.192 1255.71 570.706 1249.1 562.794C1242.48 554.86 1234.11 548.478 1224.19 543.857C1214.28 539.229 1202.59 536.884 1189.43 536.884C1176.27 536.884 1164.57 539.229 1154.65 543.857C1144.74 548.478 1136.36 554.86 1129.74 562.808C1123.14 570.734 1118.17 580.206 1114.99 590.972C1111.82 601.668 1110.21 613.395 1110.21 625.817C1110.21 638.247 1111.82 649.98 1114.99 660.663C1118.17 671.422 1123.13 680.9 1129.75 688.841C1136.37 696.788 1144.77 703.114 1154.66 707.624C1164.59 712.134 1176.28 714.43 1189.43 714.43C1202.58 714.43 1214.26 712.134 1224.17 707.624C1234.08 703.114 1242.47 696.788 1249.1 688.841C1255.71 680.928 1260.67 671.436 1263.86 660.663C1267.02 649.959 1268.63 638.233 1268.63 625.817C1268.63 613.409 1267.02 601.675 1263.86 590.972ZM1530.17 680.288C1529.11 677.135 1526.03 678.325 1526.03 678.325C1521.32 680.128 1516.31 681.798 1510.95 682.633C1505.55 683.482 1499.57 683.907 1493.18 683.907C1477.5 683.907 1465.01 679.237 1456.09 670.009C1447.14 660.774 1442.1 645.853 1442.16 625.671C1442.21 607.326 1446.65 593.505 1454.61 582.969C1462.5 572.502 1474.56 567.129 1490.58 567.129C1503.97 567.129 1514.18 568.681 1524.87 572.036C1524.87 572.036 1527.41 573.142 1528.63 569.795C1531.48 561.91 1533.58 556.301 1536.61 547.636C1537.48 545.166 1535.36 544.122 1534.59 543.822C1530.38 542.18 1520.45 539.487 1512.96 538.352C1505.95 537.281 1497.76 536.724 1488.62 536.724C1475 536.724 1462.86 539.055 1452.47 543.676C1442.11 548.29 1433.32 554.665 1426.36 562.592C1419.39 570.532 1414.09 580.018 1410.58 590.777C1407.06 601.48 1405.29 613.228 1405.29 625.685C1405.29 652.583 1412.55 674.317 1426.86 690.24C1441.23 706.218 1462.77 714.333 1490.9 714.333C1507.51 714.333 1524.55 710.972 1536.83 706.142C1536.83 706.142 1539.17 705.014 1538.15 702.286L1530.17 680.288ZM1586.92 607.8C1588.47 597.354 1591.33 588.675 1595.79 581.897C1602.52 571.632 1612.77 565.974 1627.18 565.974C1641.6 565.974 1651.1 571.639 1657.95 581.904C1662.47 588.689 1664.45 597.729 1665.22 607.813L1586.92 607.8ZM1696.11 584.855C1693.34 574.457 1686.54 563.956 1682.06 559.154C1675 551.54 1668.08 546.21 1661.21 543.266C1651.27 539.041 1640.58 536.87 1629.78 536.884C1616.07 536.884 1603.62 539.201 1593.53 543.934C1583.41 548.68 1574.92 555.166 1568.26 563.225C1561.58 571.277 1556.58 580.86 1553.38 591.73C1550.18 602.538 1548.57 614.32 1548.57 626.764C1548.57 639.416 1550.25 651.212 1553.54 661.818C1556.88 672.514 1562.23 681.902 1569.45 689.718C1576.67 697.561 1585.96 703.713 1597.06 708C1608.11 712.28 1621.52 714.5 1636.91 714.451C1668.63 714.347 1685.31 707.276 1692.2 703.469C1693.42 702.787 1694.57 701.611 1693.13 698.222L1685.95 678.124C1684.85 675.124 1681.82 676.21 1681.82 676.21C1673.95 679.147 1662.81 684.387 1636.75 684.331C1619.73 684.303 1607.12 679.272 1599.19 671.415C1591.08 663.377 1587.1 651.574 1586.43 634.899L1696.19 634.983C1696.19 634.983 1699.08 634.955 1699.38 632.129C1699.5 630.96 1703.15 609.581 1696.11 584.855ZM707.687 607.8C709.239 597.354 712.106 588.675 716.56 581.897C723.297 571.632 733.527 565.974 747.954 565.974C762.373 565.974 771.873 571.639 778.721 581.904C783.237 588.689 785.214 597.729 785.986 607.813L707.687 607.8ZM816.872 584.855C814.116 574.457 807.303 563.956 802.835 559.154C795.771 551.54 788.86 546.21 781.985 543.266C772.043 539.043 761.351 536.872 750.549 536.884C736.846 536.884 724.396 539.201 714.298 543.934C704.186 548.68 695.689 555.166 689.015 563.225C682.355 571.277 677.351 580.86 674.143 591.73C670.949 602.538 669.341 614.32 669.341 626.764C669.341 639.416 671.004 651.212 674.324 661.818C677.65 672.514 683.009 681.902 690.219 689.718C697.443 697.561 706.727 703.713 717.827 708C728.878 712.28 742.282 714.5 757.683 714.451C789.396 714.347 806.085 707.276 812.975 703.469C814.185 702.787 815.341 701.611 813.9 698.222L806.725 678.124C805.618 675.124 802.584 676.21 802.584 676.21C794.72 679.147 783.578 684.387 757.516 684.331C740.5 684.303 727.883 679.272 719.956 671.415C711.856 663.377 707.868 651.574 707.193 634.899L816.962 634.983C816.962 634.983 819.857 634.955 820.157 632.129C820.275 630.96 823.922 609.581 816.872 584.855ZM470.395 679.689C466.087 676.251 465.488 675.409 464.062 673.175C461.884 669.814 460.77 665.026 460.77 658.895C460.77 649.256 463.971 642.311 470.569 637.648C470.499 637.662 480.033 629.422 502.408 629.714C512.389 629.892 522.347 630.74 532.214 632.255V682.153H532.228C532.228 682.153 518.275 685.152 502.568 686.099C480.242 687.442 470.325 679.669 470.395 679.689ZM514.079 602.538C509.625 602.211 503.855 602.051 496.938 602.051C487.536 602.051 478.44 603.22 469.901 605.517C461.327 607.827 453.616 611.405 446.984 616.144C440.355 620.879 434.905 627.074 431.054 634.252C427.163 641.497 425.18 650.008 425.18 659.549C425.18 669.285 426.871 677.72 430.212 684.61C433.48 691.441 438.4 697.349 444.527 701.799C450.63 706.239 458.16 709.496 466.894 711.487C475.517 713.456 485.288 714.451 495.963 714.451C507.237 714.451 518.449 713.505 529.312 711.674C538.566 710.08 547.785 708.289 556.962 706.302C560.622 705.46 564.659 704.353 564.659 704.353C567.373 703.664 567.164 700.762 567.164 700.762L567.102 600.367C567.102 578.348 561.228 562.035 549.655 551.902C538.137 541.818 521.177 536.724 499.234 536.724C490.994 536.724 477.758 537.837 469.81 539.431C469.81 539.431 445.842 544.08 435.974 551.812C435.974 551.812 433.803 553.148 434.986 556.175L442.759 577.053C443.727 579.76 446.364 578.835 446.364 578.835C446.364 578.835 447.192 578.508 448.167 577.93C469.281 566.447 495.998 566.788 495.998 566.788C507.857 566.788 516.994 569.189 523.133 573.887C529.125 578.487 532.166 585.411 532.166 600.047V604.689C522.75 603.325 514.079 602.538 514.079 602.538ZM1399.55 545.98C1399.71 545.613 1399.79 545.218 1399.79 544.818C1399.79 544.418 1399.72 544.022 1399.56 543.654C1399.41 543.285 1399.18 542.951 1398.9 542.671C1398.61 542.392 1398.27 542.173 1397.9 542.027C1396.03 541.317 1386.69 539.348 1379.5 538.902C1365.7 538.039 1358.05 540.364 1351.19 543.454C1344.38 546.523 1336.84 551.485 1332.64 557.143L1332.63 543.753C1332.63 541.916 1331.33 540.433 1329.47 540.433H1301.33C1299.51 540.433 1298.19 541.916 1298.19 543.753V707.52C1298.19 708.403 1298.54 709.25 1299.16 709.875C1299.79 710.5 1300.64 710.851 1301.52 710.853H1330.37C1331.25 710.851 1332.09 710.499 1332.72 709.874C1333.34 709.249 1333.69 708.403 1333.69 707.52V625.713C1333.69 614.724 1334.9 603.777 1337.32 596.894C1339.7 590.081 1342.93 584.653 1346.94 580.749C1350.74 576.98 1355.39 574.183 1360.5 572.592C1365.29 571.218 1370.24 570.52 1375.23 570.518C1380.97 570.518 1387.29 571.994 1387.29 571.994C1389.4 572.23 1390.58 570.936 1391.29 569.029C1393.18 564.011 1398.53 548.972 1399.55 545.98Z" fill="#FFFFFE"/>
<path fill-rule="evenodd" clip-rule="evenodd" d="M1128.81 470.089C1125.25 469.012 1121.63 468.153 1117.96 467.514C1113.03 466.691 1108.04 466.304 1103.04 466.359C1083.18 466.359 1067.53 471.968 1056.54 483.047C1045.63 494.043 1038.21 510.794 1034.48 532.834L1033.14 540.274H1008.22C1008.22 540.274 1005.18 540.148 1004.54 543.468L1000.45 566.294C1000.16 568.48 1001.1 569.844 1004.02 569.83H1028.28L1003.67 707.228C1001.74 718.293 999.533 727.396 997.091 734.293C994.683 741.099 992.33 746.2 989.435 749.902C986.631 753.486 983.972 756.124 979.386 757.662C975.6 758.936 971.244 759.52 966.47 759.52C963.811 759.52 960.276 759.075 957.666 758.553C955.056 758.038 953.699 757.453 951.744 756.632C951.744 756.632 948.897 755.546 947.777 758.4C946.865 760.731 940.4 778.512 939.634 780.711C938.855 782.883 939.948 784.595 941.326 785.089C944.555 786.244 946.956 786.982 951.354 788.019C957.464 789.459 962.614 789.55 967.437 789.55C977.542 789.55 986.749 788.13 994.383 785.374C1002.07 782.597 1008.75 777.761 1014.67 771.212C1021.07 764.148 1025.09 756.75 1028.94 746.659C1032.74 736.659 1035.99 724.243 1038.58 709.775L1063.32 569.83H1099.48C1099.48 569.83 1102.52 569.941 1103.16 566.635L1107.25 543.809C1107.54 541.624 1106.6 540.26 1103.67 540.274H1068.57C1068.74 539.48 1070.34 527.134 1074.37 515.512C1076.09 510.55 1079.32 506.549 1082.06 503.8C1084.62 501.182 1087.78 499.219 1091.26 498.079C1095.07 496.9 1099.05 496.327 1103.04 496.381C1106.35 496.381 1109.59 496.778 1112.06 497.293C1115.46 498.016 1116.78 498.399 1117.67 498.664C1121.25 499.756 1121.73 498.699 1122.44 496.966L1130.83 473.916C1131.69 471.439 1129.59 470.395 1128.81 470.089ZM638.358 707.52C638.358 709.357 637.05 710.854 635.213 710.854H606.102C604.258 710.854 602.949 709.357 602.949 707.52V473.213C602.949 471.383 604.258 469.901 606.102 469.901H635.213C637.05 469.901 638.358 471.383 638.358 473.213V707.52Z" fill="#FFFFFE"/>
</svg>
