<svg width="865" height="865" viewBox="0 0 865 865" fill="none" xmlns="http://www.w3.org/2000/svg">
<path d="M181.546 546.044C181.546 596.004 140.733 636.817 90.7728 636.817C40.8126 636.817 0 596.004 0 546.044C0 496.084 40.8126 455.271 90.7728 455.271H181.546V546.044Z" fill="#E01E5A"/>
<path d="M227.284 546.044C227.284 496.084 268.097 455.271 318.057 455.271C368.017 455.271 408.83 496.084 408.83 546.044V773.328C408.83 823.288 368.017 864.101 318.057 864.101C268.097 864.101 227.284 823.288 227.284 773.328V546.044Z" fill="#E01E5A"/>
<path d="M318.057 181.546C268.097 181.546 227.284 140.733 227.284 90.7728C227.284 40.8126 268.097 0 318.057 0C368.017 0 408.83 40.8126 408.83 90.7728V181.546H318.057Z" fill="#36C5F0"/>
<path d="M318.057 227.284C368.017 227.284 408.829 268.097 408.829 318.057C408.829 368.017 368.017 408.83 318.057 408.83H90.7728C40.8126 408.83 0 368.017 0 318.057C0 268.097 40.8126 227.284 90.7728 227.284H318.057Z" fill="#36C5F0"/>
<path d="M682.556 318.057C682.556 268.097 723.368 227.284 773.328 227.284C823.289 227.284 864.101 268.097 864.101 318.057C864.101 368.017 823.289 408.83 773.328 408.83H682.556V318.057Z" fill="#2EB67D"/>
<path d="M636.817 318.057C636.817 368.017 596.004 408.829 546.044 408.829C496.084 408.829 455.271 368.017 455.271 318.057V90.7728C455.271 40.8126 496.084 0 546.044 0C596.004 0 636.817 40.8126 636.817 90.7728V318.057Z" fill="#2EB67D"/>
<path d="M546.044 682.556C596.004 682.556 636.817 723.368 636.817 773.328C636.817 823.289 596.004 864.101 546.044 864.101C496.084 864.101 455.271 823.289 455.271 773.328V682.556H546.044Z" fill="#ECB22E"/>
<path d="M546.044 636.817C496.084 636.817 455.271 596.004 455.271 546.044C455.271 496.084 496.084 455.271 546.044 455.271H773.328C823.288 455.271 864.101 496.084 864.101 546.044C864.101 596.004 823.288 636.817 773.328 636.817H546.044Z" fill="#ECB22E"/>
</svg>
